<svg width="71" height="31" viewBox="0 0 71 31" fill="none" xmlns="http://www.w3.org/2000/svg">
<path fill-rule="evenodd" clip-rule="evenodd" d="M2.8125 24.5185L18 15.75L2.8125 6.98149V10.8786L11.25 15.75L2.8125 20.6214V24.5185Z" fill="white"/>
<path d="M11.25 5.625L2.8125 10.4964L2.8125 0.753607L11.25 5.625Z" fill="#F7F7F7"/>
<path d="M10.125 15.75L3.375 19.6471L3.375 11.8529L10.125 15.75Z" fill="#F7F7F7"/>
<path d="M21.92 24.9643C21.328 24.9643 20.776 24.8683 20.264 24.6763C19.752 24.4683 19.304 24.1883 18.92 23.8363C18.552 23.4843 18.256 23.0763 18.032 22.6123C17.824 22.1323 17.72 21.6123 17.72 21.0523C17.72 20.4763 17.848 19.9563 18.104 19.4923C18.36 19.0123 18.72 18.6043 19.184 18.2683C19.664 17.9323 20.224 17.6683 20.864 17.4763C21.52 17.2843 22.232 17.1883 23 17.1883C23.608 17.1883 24.224 17.2443 24.848 17.3563C25.472 17.4683 26.024 17.6203 26.504 17.8123V16.8043C26.504 15.7803 26.216 14.9803 25.64 14.4043C25.064 13.8123 24.248 13.5163 23.192 13.5163C21.928 13.5163 20.6 14.0043 19.208 14.9803L18.512 13.6123C20.128 12.5243 21.752 11.9803 23.384 11.9803C25.032 11.9803 26.312 12.4203 27.224 13.3003C28.152 14.1803 28.616 15.4203 28.616 17.0203V22.1323C28.616 22.6283 28.84 22.8843 29.288 22.9003V24.7243C29.064 24.7563 28.88 24.7803 28.736 24.7963C28.592 24.8123 28.44 24.8203 28.28 24.8203C27.864 24.8203 27.528 24.7003 27.272 24.4603C27.032 24.2043 26.888 23.9003 26.84 23.5483L26.792 22.6603C26.232 23.4123 25.52 23.9883 24.656 24.3883C23.808 24.7723 22.896 24.9643 21.92 24.9643ZM22.472 23.3803C23.224 23.3803 23.92 23.2443 24.56 22.9723C25.216 22.6843 25.712 22.3083 26.048 21.8443C26.352 21.5403 26.504 21.2283 26.504 20.9083V19.0603C25.48 18.6603 24.416 18.4603 23.312 18.4603C22.256 18.4603 21.392 18.6843 20.72 19.1323C20.064 19.5803 19.736 20.1643 19.736 20.8843C19.736 21.2363 19.8 21.5643 19.928 21.8683C20.072 22.1723 20.264 22.4363 20.504 22.6603C20.76 22.8843 21.056 23.0603 21.392 23.1883C21.728 23.3163 22.088 23.3803 22.472 23.3803ZM42.8651 24.7243H40.7531V17.7163C40.7531 16.3723 40.5451 15.3963 40.1291 14.7883C39.7291 14.1803 39.1131 13.8763 38.2811 13.8763C37.8491 13.8763 37.4171 13.9643 36.9851 14.1403C36.5531 14.3003 36.1451 14.5243 35.7611 14.8123C35.3771 15.1003 35.0411 15.4443 34.7531 15.8443C34.4651 16.2443 34.2491 16.6843 34.1051 17.1643V24.7243H31.9931V12.1963H33.9131V14.8843C34.4091 14.0043 35.1211 13.3003 36.0491 12.7723C36.9931 12.2443 38.0171 11.9803 39.1211 11.9803C39.8411 11.9803 40.4411 12.1163 40.9211 12.3883C41.4011 12.6443 41.7851 13.0123 42.0731 13.4923C42.3611 13.9563 42.5611 14.5083 42.6731 15.1483C42.8011 15.7883 42.8651 16.4843 42.8651 17.2363V24.7243ZM54.9813 24.7243L50.6613 18.6043L48.2613 20.8603V24.7243H46.1493V7.20428H48.2613V18.7243L54.6933 12.2203H57.0213L52.0293 17.4043L57.2613 24.7243H54.9813ZM62.3028 24.9643C61.7108 24.9643 61.1588 24.8683 60.6468 24.6763C60.1348 24.4683 59.6868 24.1883 59.3028 23.8363C58.9348 23.4843 58.6388 23.0763 58.4148 22.6123C58.2068 22.1323 58.1028 21.6123 58.1028 21.0523C58.1028 20.4763 58.2308 19.9563 58.4868 19.4923C58.7428 19.0123 59.1028 18.6043 59.5668 18.2683C60.0468 17.9323 60.6068 17.6683 61.2468 17.4763C61.9028 17.2843 62.6148 17.1883 63.3828 17.1883C63.9908 17.1883 64.6068 17.2443 65.2308 17.3563C65.8548 17.4683 66.4068 17.6203 66.8868 17.8123V16.8043C66.8868 15.7803 66.5988 14.9803 66.0228 14.4043C65.4468 13.8123 64.6308 13.5163 63.5748 13.5163C62.3108 13.5163 60.9828 14.0043 59.5908 14.9803L58.8948 13.6123C60.5108 12.5243 62.1348 11.9803 63.7668 11.9803C65.4148 11.9803 66.6948 12.4203 67.6068 13.3003C68.5348 14.1803 68.9988 15.4203 68.9988 17.0203V22.1323C68.9988 22.6283 69.2228 22.8843 69.6708 22.9003V24.7243C69.4468 24.7563 69.2628 24.7803 69.1188 24.7963C68.9748 24.8123 68.8228 24.8203 68.6628 24.8203C68.2468 24.8203 67.9108 24.7003 67.6548 24.4603C67.4148 24.2043 67.2708 23.9003 67.2228 23.5483L67.1748 22.6603C66.6148 23.4123 65.9028 23.9883 65.0388 24.3883C64.1908 24.7723 63.2788 24.9643 62.3028 24.9643ZM62.8548 23.3803C63.6068 23.3803 64.3028 23.2443 64.9428 22.9723C65.5988 22.6843 66.0948 22.3083 66.4308 21.8443C66.7348 21.5403 66.8868 21.2283 66.8868 20.9083V19.0603C65.8628 18.6603 64.7988 18.4603 63.6948 18.4603C62.6388 18.4603 61.7748 18.6843 61.1028 19.1323C60.4468 19.5803 60.1188 20.1643 60.1188 20.8843C60.1188 21.2363 60.1828 21.5643 60.3108 21.8683C60.4548 22.1723 60.6468 22.4363 60.8868 22.6603C61.1428 22.8843 61.4388 23.0603 61.7748 23.1883C62.1108 23.3163 62.4708 23.3803 62.8548 23.3803Z" fill="white"/>
</svg>
